<?xml version="1.0" encoding="UTF-8" standalone="no"?>
<!-- Created with Inkscape (http://www.inkscape.org/) -->

<svg
   xmlns:dc="http://purl.org/dc/elements/1.1/"
   xmlns:cc="http://creativecommons.org/ns#"
   xmlns:rdf="http://www.w3.org/1999/02/22-rdf-syntax-ns#"
   xmlns:svg="http://www.w3.org/2000/svg"
   xmlns="http://www.w3.org/2000/svg"
   xmlns:sodipodi="http://sodipodi.sourceforge.net/DTD/sodipodi-0.dtd"
   xmlns:inkscape="http://www.inkscape.org/namespaces/inkscape"
   width="89.999771mm"
   height="90.000282mm"
   viewBox="0 0 89.999771 90.000282"
   version="1.1"
   id="svg8"
   inkscape:version="0.92.1 r15371"
   sodipodi:docname="logo.svg">
  <defs
     id="defs2" />
  <sodipodi:namedview
     id="base"
     pagecolor="#ffffff"
     bordercolor="#666666"
     borderopacity="1.0"
     inkscape:pageopacity="0.0"
     inkscape:pageshadow="2"
     inkscape:zoom="0.7"
     inkscape:cx="344.95803"
     inkscape:cy="105.40249"
     inkscape:document-units="mm"
     inkscape:current-layer="layer1"
     showgrid="false"
     fit-margin-top="5"
     fit-margin-left="5"
     fit-margin-bottom="5"
     fit-margin-right="5"
     inkscape:window-width="1920"
     inkscape:window-height="1017"
     inkscape:window-x="1912"
     inkscape:window-y="-8"
     inkscape:window-maximized="1" />
  <metadata
     id="metadata5">
    <rdf:RDF>
      <cc:Work
         rdf:about="">
        <dc:format>image/svg+xml</dc:format>
        <dc:type
           rdf:resource="http://purl.org/dc/dcmitype/StillImage" />
        <dc:title></dc:title>
      </cc:Work>
    </rdf:RDF>
  </metadata>
  <g
     inkscape:label="Layer 1"
     inkscape:groupmode="layer"
     id="layer1"
     transform="translate(-57.808569,-85.667849)">
    <path
       style="fill:#2a2b34;fill-opacity:1;stroke:none;stroke-width:6.37606287;stroke-linecap:square;stroke-linejoin:round;stroke-miterlimit:4;stroke-dasharray:none;stroke-opacity:1;paint-order:markers fill stroke"
       d="m 287.89258,342.68164 c -27.98123,0 -50.50586,22.52658 -50.50586,50.50781 v 201.34766 c 0,27.98124 22.52463,50.50781 50.50586,50.50781 h 201.34765 c 27.98125,0 50.50782,-22.52657 50.50782,-50.50781 V 393.18945 c 0,-27.98123 -22.52657,-50.50781 -50.50782,-50.50781 z m 188.67969,99.96484 c 0.61173,-0.003 1.223,0.006 1.83398,0.0293 12.56758,-0.28746 25.30745,2.98803 35.75,10.09961 v 23.74805 c -8.69351,-9.49972 -20.94709,-16.37813 -34.07422,-16.22266 -10.89112,-0.57663 -22.09723,5.42577 -25.4707,16.20703 -3.07371,12.24976 -3.74517,26.77476 3.59765,37.80664 8.6576,11.24661 25.49288,11.2145 37.78516,6.76172 2.07607,-5.23081 -0.0538,-11.57653 0.75781,-17.25781 -5.39923,-1.00507 -11.22802,1.15518 -16.67187,-0.22266 -5.95622,-3.8211 -0.74155,-12.13601 -3.1211,-17.57226 h 39.48243 v 39.60547 c 1.44202,5.78493 -5.62312,7.28605 -9.4336,9.81836 -19.31341,9.01204 -44.59586,8.89032 -61.07422,-5.9375 -14.32086,-13.88017 -16.5555,-36.44998 -11.58007,-54.93946 4.17216,-19.0778 23.25512,-31.82016 42.21875,-31.92383 z m -102.1836,0.0117 c 0.4484,-0.003 0.89644,0.006 1.34571,0.0293 7.8756,-0.26247 15.69872,1.59842 22.90039,4.70703 4.67372,6.12391 0.15096,14.25283 2.49218,21.08985 -6.11669,-3.22469 -12.1976,-6.95973 -19.11133,-8.18555 -6.13502,-2.08246 -15.21999,1.82661 -13.40039,9.33789 9.13164,13.74122 22.53189,24.14166 33.59375,36.32617 3.44797,-5.76396 3.44441,-12.64563 5.10938,-18.875 4.57991,-5.72051 12.83998,10e-4 18.63672,-2.86133 -0.30731,12.16739 -4.39781,24.10181 -11.25977,34.11914 2.61901,3.69498 6.05932,6.69094 9.26367,9.85547 2.18162,3.19188 7.12385,5.03819 7.48829,9.15625 -2.03222,4.71494 -8.81528,1.55755 -12.63868,2.20899 -5.50512,1.77089 -11.37816,-0.47924 -14.83398,-5.01563 -1.71025,-4.01208 -4.24881,0.40387 -6.67773,1.17383 -17.11929,10.12456 -42.8947,7.21054 -53.73243,-10.63867 -8.85169,-14.39466 -3.06415,-33.95432 10.02344,-43.72656 -2.18076,-3.49142 -3.75538,-7.4241 -4.18359,-11.53907 -2.16216,-14.34925 11.08398,-27.05711 24.98437,-27.16211 z m -76.05469,0.006 c 9.51914,0.006 18.96067,1.96192 27.94336,5.04688 3.68414,6.60387 0.17043,14.43889 1.92188,21.47851 -10.22863,-5.25045 -21.5988,-10.20864 -33.38281,-8.63086 -7.37061,-0.42855 -14.38245,7.74935 -10.29493,14.67383 9.10816,7.22394 22.18694,5.11023 32.35157,10.44531 19.01768,7.49993 21.95037,36.58031 5.89843,48.56641 -17.56849,11.50427 -40.418,7.54508 -58.90039,0.42188 v -21.84766 c 10.84595,6.69336 23.38434,12.39629 36.50391,10.7168 7.86349,0.45508 15.02091,-7.84113 11.61914,-15.44336 -4.69233,-7.40422 -15.03234,-7.29584 -22.67969,-9.23633 -15.71426,-1.38905 -29.03104,-15.98259 -25.49414,-32.06641 1.74608,-15.46732 18.13571,-24.64107 32.60742,-24.09961 0.63518,-0.0171 1.27165,-0.0258 1.90625,-0.0254 z m 66.51368,51.62305 c -4.48297,4.59367 -7.53696,11.3404 -5.7168,17.78906 3.61858,12.87735 21.08231,14.8478 30.9082,8.01953 -8.39713,-8.60286 -16.79426,-17.20573 -25.1914,-25.80859 z"
       transform="scale(0.26458333)"
       id="rect4500"
       inkscape:connector-curvature="0" />
    <flowRoot
       xml:space="preserve"
       id="flowRoot4502"
       style="font-style:normal;font-variant:normal;font-weight:normal;font-stretch:normal;font-size:120px;line-height:1.25;font-family:sans-serif;-inkscape-font-specification:sans-serif;letter-spacing:0px;word-spacing:0px;fill:#4c4f62;fill-opacity:1;stroke:none"
       transform="matrix(0.26458333,0,0,0.26458333,0.53453906,1.3363476)"><flowRegion
         id="flowRegion4504"
         style="font-style:normal;font-variant:normal;font-weight:normal;font-stretch:normal;font-size:120px;line-height:1.25;font-family:sans-serif;-inkscape-font-specification:sans-serif;fill:#4c4f62;fill-opacity:1"><rect
           id="rect4506"
           width="299.00519"
           height="234.35551"
           x="257.5889"
           y="424.50427"
           style="font-style:normal;font-variant:normal;font-weight:normal;font-stretch:normal;font-size:120px;line-height:1.25;font-family:sans-serif;-inkscape-font-specification:sans-serif;fill:#4c4f62;fill-opacity:1"
           ry="0" /></flowRegion><flowPara
         id="flowPara4508">S&amp;G</flowPara></flowRoot>    <g
       aria-label="S&amp;G"
       transform="matrix(0.26458333,0,0,0.26458333,0.53453906,1.3363476)"
       style="font-style:normal;font-variant:normal;font-weight:normal;font-stretch:normal;font-size:120px;line-height:1.25;font-family:sans-serif;-inkscape-font-specification:sans-serif;letter-spacing:0px;word-spacing:0px;fill:#4c4f62;fill-opacity:1;stroke:none;stroke-opacity:1"
       id="flowRoot4516" />
  </g>
</svg>
